<svg id="logo-svg" xmlns="http://www.w3.org/2000/svg" xmlns:xlink="http://www.w3.org/1999/xlink" viewBox="0 0 593.844 124.685" shape-rendering="geometricPrecision" text-rendering="geometricPrecision"><path d="M0,106.876C121.393,28.296,250.056,20.23,296.703,20.23c50.139,0,199.602,17.56,296.918,86.526C454.645,36.894,353.736,31.971,296.386,31.971s-147.867-.504-296.386,74.905Z" fill="#891325" fill-opacity="0.75" stroke="#592370" stroke-opacity="0"/><path d="M47.303,116.281c0,2.671,0,4.852.127,5.993.096.814.192,1.336,1.025,1.466.416.064,1.024.13,1.28.13.16,0,.225.13.225.228c0,.13-.128.228-.448.228-1.569,0-3.394-.098-3.521-.098-.161,0-1.921.098-2.786.098-.288,0-.448-.065-.448-.228c0-.098.064-.228.224-.228.257,0,.609-.065.865-.13.544-.13.64-.652.736-1.466.128-1.141.16-3.322.16-5.993v-4.887c0-4.3,0-5.082-.064-5.961-.064-.945-.288-1.369-.896-1.499-.321-.065-.673-.098-.865-.098-.128,0-.224-.13-.224-.228c0-.163.128-.228.449-.228.928,0,2.689.066,2.849.066.127,0,1.953-.066,2.817-.066.32,0,.448.066.448.228c0,.098-.127.228-.224.228-.192,0-.384,0-.705.066-.768.162-.928.553-.992,1.531-.032.879-.032,1.661-.032,5.961v4.887Z" fill="#673ab7" fill-opacity="0.75" stroke="#8d6bc9" stroke-opacity="0"/><path d="M61.124,120.547c.065,2.28.32,2.965,1.089,3.161.512.13,1.152.162,1.408.162.128,0,.225.098.225.228c0,.163-.192.228-.513.228-1.6,0-2.721-.098-2.977-.098s-1.441.098-2.722.098c-.288,0-.448-.032-.448-.228c0-.13.096-.228.225-.228.223,0,.736-.032,1.152-.162.705-.196.801-.946.801-3.454v-15.864c0-1.108.16-1.401.384-1.401.32,0,.8.554,1.089.847.448.456,4.545,4.886,8.899,9.447c2.785,2.932,5.795,6.222,6.659,7.134l-.288-13.877c-.032-1.791-.192-2.41-1.056-2.574-.513-.098-1.153-.13-1.377-.13-.192,0-.224-.162-.224-.26c0-.163.224-.196.544-.196c1.28,0,2.625.066,2.945.066s1.249-.066,2.401-.066c.289,0,.513.034.513.196c0,.098-.128.26-.32.26-.128,0-.352,0-.672.066-.929.194-.992.749-.992,2.41l-.064,16.222c0,1.825-.032,1.988-.225,1.988-.288,0-.576-.228-2.145-1.695-.287-.26-4.353-4.332-7.331-7.492-3.266-3.486-6.435-6.873-7.299-7.851l.32,13.063h-.001Z" fill="#673ab7" fill-opacity="0.75" stroke="#8d6bc9" stroke-opacity="0"/><path d="M95.959,120.711c1.633-3.713,5.314-13.161,5.923-15.148.128-.424.256-.814.256-1.042s-.096-.488-.384-.586c-.32-.098-.64-.098-.96-.098-.16,0-.321-.098-.321-.228c0-.163.192-.228.641-.228c1.12,0,2.401.066,2.753.066.16,0,1.376-.066,2.209-.066.288,0,.448.066.448.196s-.096.26-.321.26c-.192,0-.832,0-1.344.326-.384.26-.832.652-1.568,2.541-.32.781-1.697,4.104-3.137,7.492-1.729,4.04-2.977,7.036-3.618,8.404-.768,1.661-.929,2.085-1.217,2.085-.32,0-.512-.358-1.056-1.694L87.348,106.02c-.64-1.564-1.024-1.856-1.953-2.085-.448-.098-.928-.098-1.088-.098-.161,0-.225-.162-.225-.26c0-.163.289-.196.736-.196c1.344,0,2.945.066,3.297.066.288,0,1.537-.066,2.625-.066.512,0,.769.066.769.196s-.096.26-.289.26c-.32,0-.768.032-1.024.13-.289.13-.321.294-.321.489c0,.359.352,1.206.768,2.313l5.314,13.942h.002Z" fill="#673ab7" fill-opacity="0.75" stroke="#8d6bc9" stroke-opacity="0"/><path d="M113.965,111.394c0-4.3,0-5.082-.064-5.961-.063-.945-.224-1.401-1.153-1.531-.223-.034-.704-.066-.96-.066-.096,0-.224-.13-.224-.228c0-.163.128-.228.448-.228c1.281,0,3.105.066,3.266.066.192,0,6.082.032,6.723,0c.544-.032,1.057-.13,1.281-.164.128-.032.256-.13.384-.13.096,0,.128.13.128.262c0,.195-.16.52-.224,1.303-.032.26-.096,1.498-.16,1.823-.032.13-.128.294-.256.294-.161,0-.224-.13-.224-.358c0-.196-.032-.652-.16-.978-.192-.456-.48-.651-2.017-.847-.48-.064-3.746-.098-4.066-.098-.128,0-.161.098-.161.294v7.524c0,.196,0,.294.161.294.352,0,4.066,0,4.706-.065.672-.065,1.088-.098,1.376-.391.192-.196.32-.358.416-.358s.16.064.16.228c0,.163-.16.619-.224,1.531-.064.554-.128,1.596-.128,1.791c0,.228-.063.522-.256.522-.127,0-.192-.098-.192-.261c0-.261,0-.554-.127-.912-.096-.392-.352-.716-1.441-.848-.768-.097-3.777-.13-4.258-.13-.16,0-.192.098-.192.196v2.313c0,.944-.031,4.17,0,4.723.064,1.857.577,2.215,3.362,2.215.736,0,2.081,0,2.817-.292.736-.326,1.12-.814,1.281-1.922.063-.325.127-.423.288-.423s.192.228.192.423-.225,2.085-.384,2.671c-.192.716-.48.716-1.569.716-2.113,0-3.746-.065-4.898-.097-1.184-.066-1.92-.066-2.337-.066-.064,0-.608,0-1.217.032-.544.034-1.184.065-1.632.065-.289,0-.448-.065-.448-.228c0-.098.063-.228.224-.228.257,0,.609-.098.865-.13.544-.098.608-.652.736-1.466.16-1.141.16-3.322.16-5.993v-4.887h-.002Z" fill="#673ab7" fill-opacity="0.75" stroke="#8d6bc9" stroke-opacity="0"/><path d="M132.41,123.935c-.384-.194-.416-.292-.416-1.041c0-1.369.128-2.477.161-2.933c0-.293.063-.456.224-.456s.256.098.256.326s0,.62.096,1.01c.449,2.02,2.562,2.736,4.45,2.736c2.785,0,4.226-1.596,4.226-3.681c0-1.987-1.057-2.931-3.554-4.82l-1.28-.978c-3.041-2.313-4.034-4.006-4.034-5.929c0-3.258,2.529-5.211,6.243-5.211c1.12,0,2.241.162,2.913.325.544.131.768.131.993.131s.287.032.287.195c0,.13-.127,1.042-.127,2.932c0,.424-.032.62-.224.62s-.224-.13-.256-.358c-.032-.326-.256-1.076-.415-1.369-.192-.326-1.121-1.369-3.65-1.369-2.049,0-3.745,1.042-3.745,2.997c0,1.759.864,2.769,3.649,4.69l.801.554c3.425,2.378,4.61,4.3,4.61,6.678c0,1.629-.608,3.388-2.625,4.724-1.185.781-2.946.977-4.482.977-1.313,0-2.946-.196-4.098-.75h-.003Z" fill="#673ab7" fill-opacity="0.75" stroke="#8d6bc9" stroke-opacity="0"/><path d="M160.768,116.281c0,2.671,0,4.852.127,5.993.096.814.225,1.336,1.089,1.466.383.064,1.023.13,1.28.13.192,0,.224.13.224.228c0,.13-.127.228-.448.228-1.537,0-3.33-.098-3.49-.098-.128,0-2.081.098-2.914.098-.32,0-.448-.065-.448-.228c0-.098.065-.195.225-.195.256,0,.576-.065.832-.13.576-.13.736-.684.832-1.499.128-1.141.128-3.322.128-5.993v-11.63l-4.066.066c-1.76.032-2.433.228-2.849.878-.32.489-.352.684-.448.88-.063.228-.16.26-.288.26-.064,0-.192-.066-.192-.228c0-.292.576-2.769.608-2.997.064-.162.192-.521.288-.521.192,0,.48.228,1.248.326.8.098,1.89.13,2.209.13h10.629c.928,0,1.569-.066,2.017-.13.416-.066.672-.13.801-.13.127,0,.127.162.127.325c0,.848-.096,2.835-.096,3.16c0,.228-.127.36-.256.36s-.192-.098-.224-.49l-.032-.292c-.096-.847-.705-1.467-3.393-1.531l-3.521-.066v11.63h.001Z" fill="#673ab7" fill-opacity="0.75" stroke="#8d6bc9" stroke-opacity="0"/><path d="M197.866,120.743c.096.977.289,2.476,1.441,2.867.801.26,1.537.26,1.824.26.128,0,.225.064.225.196c0,.163-.256.26-.577.26-.64,0-3.777-.065-4.802-.164-.672-.064-.8-.162-.8-.292c0-.098.064-.195.192-.228.16-.032.192-.456.128-.977l-1.344-14.008h-.064l-6.787,14.138c-.577,1.205-.736,1.465-.993,1.465s-.416-.26-.96-1.27c-.736-1.367-2.593-4.919-3.297-6.417-.832-1.759-3.105-6.417-3.585-7.556h-.128l-1.088,12.508c-.033.423-.033.945-.033,1.401c0,.423.257.684.673.782.48.13.896.162,1.088.162.096,0,.225.098.225.196c0,.195-.192.26-.513.26-1.056,0-2.401-.098-2.625-.098-.256,0-1.601.098-2.369.098-.288,0-.48-.065-.48-.26c0-.098.127-.196.288-.196.224,0,.416-.032.832-.098.928-.163.96-1.173,1.088-2.215l2.049-18.079c.032-.292.16-.488.32-.488.192,0,.417.098.576.424l8.516,17.199l8.196-17.167c.128-.26.256-.456.448-.456s.352.228.416.749l1.92,17.004Z" fill="#673ab7" fill-opacity="0.75" stroke="#8d6bc9" stroke-opacity="0"/><path d="M209.629,111.394c0-4.3,0-5.082-.064-5.961-.064-.945-.225-1.401-1.153-1.531-.224-.034-.704-.066-.96-.066-.096,0-.225-.13-.225-.228c0-.163.129-.228.448-.228c1.281,0,3.106.066,3.266.066.192,0,6.082.032,6.723,0c.544-.032,1.057-.13,1.28-.164.128-.032.256-.13.384-.13.096,0,.128.13.128.262c0,.195-.16.52-.224,1.303-.032.26-.096,1.498-.16,1.823-.033.13-.128.294-.256.294-.16,0-.225-.13-.225-.358c0-.196-.032-.652-.16-.978-.192-.456-.48-.651-2.017-.847-.481-.064-3.746-.098-4.066-.098-.128,0-.16.098-.16.294v7.524c0,.196,0,.294.16.294.352,0,4.066,0,4.706-.065.672-.065,1.088-.098,1.376-.391.192-.196.32-.358.416-.358s.161.064.161.228c0,.163-.161.619-.225,1.531-.063.554-.127,1.596-.127,1.791c0,.228-.064.522-.257.522-.127,0-.192-.098-.192-.261c0-.261,0-.554-.128-.912-.096-.392-.352-.716-1.441-.848-.768-.097-3.777-.13-4.258-.13-.16,0-.191.098-.191.196v2.313c0,.944-.032,4.17,0,4.723.063,1.857.576,2.215,3.361,2.215.736,0,2.08,0,2.817-.292.736-.326,1.12-.814,1.28-1.922.064-.325.128-.423.288-.423s.192.228.192.423-.225,2.085-.384,2.671c-.192.716-.48.716-1.569.716-2.113,0-3.746-.065-4.898-.097-1.185-.066-1.921-.066-2.337-.066-.063,0-.608,0-1.216.032-.544.034-1.185.065-1.633.065-.288,0-.448-.065-.448-.228c0-.098.064-.228.224-.228.256,0,.608-.098.864-.13.544-.098.608-.652.737-1.466.16-1.141.16-3.322.16-5.993v-4.887h.003Z" fill="#673ab7" fill-opacity="0.75" stroke="#8d6bc9" stroke-opacity="0"/><path d="M231.626,120.547c.064,2.28.321,2.965,1.089,3.161.512.13,1.152.162,1.408.162.128,0,.224.098.224.228c0,.163-.192.228-.512.228-1.6,0-2.721-.098-2.977-.098s-1.441.098-2.722.098c-.288,0-.448-.032-.448-.228c0-.13.096-.228.224-.228.224,0,.736-.032,1.152-.162.705-.196.8-.946.8-3.454v-15.864c0-1.108.161-1.401.385-1.401.32,0,.8.554,1.089.847.448.456,4.545,4.886,8.899,9.447c2.785,2.932,5.794,6.222,6.659,7.134l-.288-13.877c-.032-1.791-.192-2.41-1.056-2.574-.513-.098-1.153-.13-1.376-.13-.192,0-.224-.162-.224-.26c0-.163.224-.196.544-.196c1.281,0,2.625.066,2.945.066s1.249-.066,2.401-.066c.288,0,.513.034.513.196c0,.098-.128.26-.321.26-.128,0-.352,0-.672.066-.928.194-.992.749-.992,2.41l-.064,16.222c0,1.825-.032,1.988-.224,1.988-.288,0-.577-.228-2.145-1.695-.288-.26-4.353-4.332-7.331-7.492-3.266-3.486-6.435-6.873-7.299-7.851l.319,13.063Z" fill="#673ab7" fill-opacity="0.75" stroke="#8d6bc9" stroke-opacity="0"/><path d="M266.324,116.281c0,2.671,0,4.852.127,5.993.096.814.225,1.336,1.089,1.466.384.064,1.024.13,1.281.13.192,0,.224.13.224.228c0,.13-.127.228-.448.228-1.536,0-3.329-.098-3.489-.098-.128,0-2.081.098-2.913.098-.32,0-.448-.065-.448-.228c0-.098.064-.195.224-.195.256,0,.577-.065.832-.13.576-.13.736-.684.832-1.499.128-1.141.128-3.322.128-5.993v-11.63l-4.066.066c-1.76.032-2.433.228-2.849.878-.32.489-.352.684-.448.88-.064.228-.16.26-.288.26-.064,0-.192-.066-.192-.228c0-.292.576-2.769.608-2.997.063-.162.192-.521.288-.521.192,0,.479.228,1.248.326.8.098,1.889.13,2.209.13h10.629c.929,0,1.568-.066,2.017-.13.416-.066.673-.13.801-.13s.128.162.128.325c0,.848-.096,2.835-.096,3.16c0,.228-.128.36-.256.36s-.192-.098-.225-.49l-.031-.292c-.096-.847-.705-1.467-3.394-1.531l-3.521-.066v11.63h-.001Z" fill="#673ab7" fill-opacity="0.75" stroke="#8d6bc9" stroke-opacity="0"/><path d="M300.746,103.934c.352-.912.48-1.074.672-1.074.287,0,.384.39.672,1.009.513,1.173,5.026,12.607,6.756,16.81c1.024,2.475,1.792,2.833,2.4,3.029.417.13.833.162,1.121.162.159,0,.352.064.352.228c0,.163-.319.228-.64.228-.416,0-2.497,0-4.451-.065-.544-.032-.991-.032-.991-.195c0-.131.063-.131.191-.196.16-.065.448-.293.256-.748l-2.528-6.353c-.064-.13-.096-.163-.257-.163h-6.498c-.129,0-.225.064-.288.228l-1.601,4.43c-.256.683-.416,1.368-.416,1.857c0,.553.479.748.959.748h.257c.225,0,.288.098.288.228c0,.163-.16.228-.415.228-.672,0-2.209-.098-2.529-.098-.289,0-1.697.098-2.85.098-.351,0-.543-.065-.543-.228c0-.13.128-.228.255-.228.192,0,.608-.032.832-.065c1.281-.163,1.825-1.139,2.37-2.54l6.627-17.331-.001.001Zm3.137,11.532c.128,0,.128-.066.097-.196l-2.786-7.59c-.159-.424-.32-.424-.479,0l-2.624,7.59c-.033.13,0,.196.095.196h5.698-.001Z" fill="#673ab7" fill-opacity="0.75" stroke="#8d6bc9" stroke-opacity="0"/><path d="M319.5,111.289c0-4.3,0-5.082-.064-5.961-.064-.944-.225-1.401-1.153-1.531-.224-.034-.704-.066-.959-.066-.097,0-.226-.13-.226-.228c0-.163.129-.228.448-.228c1.282,0,3.106.065,3.266.065.32,0,2.113-.065,3.778-.065c2.817,0,7.971-.26,11.301,3.16c1.408,1.434,2.753,3.746,2.753,7.037c0,3.486-1.473,6.156-3.041,7.784-1.217,1.271-3.746,3.193-8.548,3.193-1.218,0-2.723-.098-3.938-.164-1.216-.097-2.176-.162-2.305-.162-.063,0-.575.032-1.151.032-.577.034-1.25.066-1.697.066-.288,0-.449-.066-.449-.228c0-.098.064-.228.225-.228.256,0,.608-.066.864-.13.545-.13.608-.652.737-1.466.159-1.141.159-3.322.159-5.993v-4.887Zm2.561,2.997c0,2.931,0,5.505.031,6.025.032.685.097,1.694.32,1.987.352.522,1.346,1.108,4.675,1.108c2.594,0,4.897-.88,6.595-2.509c1.473-1.401,2.209-4.039,2.209-6.58c0-3.518-1.505-5.767-2.657-6.939-2.658-2.736-5.762-3.094-9.124-3.094-.544,0-1.44.098-1.697.196-.256.097-.352.228-.352.553v9.252.001Z" fill="#673ab7" fill-opacity="0.75" stroke="#8d6bc9" stroke-opacity="0"/><path d="M354.855,120.605c1.634-3.713,5.315-13.16,5.923-15.147.129-.424.255-.814.255-1.043s-.097-.488-.384-.586c-.32-.098-.64-.098-.959-.098-.162,0-.32-.098-.32-.228c0-.163.19-.228.64-.228c1.12,0,2.4.065,2.754.065.159,0,1.376-.065,2.207-.065.29,0,.449.065.449.196s-.097.26-.32.26c-.193,0-.833,0-1.344.326-.385.26-.833.652-1.569,2.541-.319.781-1.695,4.104-3.136,7.492-1.731,4.04-2.978,7.036-3.62,8.404-.769,1.661-.928,2.085-1.215,2.085-.319,0-.513-.358-1.056-1.695l-6.915-16.971c-.642-1.564-1.025-1.856-1.953-2.085-.449-.098-.929-.098-1.088-.098-.162,0-.225-.162-.225-.26c0-.162.289-.196.736-.196c1.345,0,2.943.065,3.296.065.29,0,1.537-.065,2.626-.065.513,0,.768.065.768.196s-.094.26-.287.26c-.32,0-.769.032-1.024.13-.287.13-.319.293-.319.488c0,.359.353,1.206.769,2.313l5.312,13.942-.001.002Z" fill="#673ab7" fill-opacity="0.75" stroke="#8d6bc9" stroke-opacity="0"/><path d="M375.316,116.175c0,2.671,0,4.852.126,5.993.097.814.193,1.336,1.026,1.466.416.064,1.023.13,1.279.13.161,0,.226.13.226.228c0,.13-.129.228-.448.228-1.569,0-3.394-.098-3.523-.098-.158,0-1.919.098-2.784.098-.287,0-.448-.066-.448-.228c0-.098.065-.228.223-.228.258,0,.61-.066.865-.13.546-.13.64-.652.736-1.466.129-1.141.161-3.322.161-5.993v-4.887c0-4.3,0-5.082-.064-5.961-.064-.944-.287-1.369-.897-1.499-.32-.065-.672-.098-.862-.098-.129,0-.226-.13-.226-.228c0-.163.129-.228.448-.228.93,0,2.69.065,2.849.065.129,0,1.954-.065,2.818-.065.32,0,.447.065.447.228c0,.098-.127.228-.224.228-.19,0-.384,0-.704.066-.768.162-.93.553-.991,1.531-.032.879-.032,1.661-.032,5.961v4.887h-.001Z" fill="#673ab7" fill-opacity="0.75" stroke="#8d6bc9" stroke-opacity="0"/><path d="M385.8,123.829c-.385-.194-.417-.292-.417-1.041c0-1.369.129-2.477.161-2.933c0-.293.062-.457.223-.457s.256.098.256.326s0,.62.097,1.01c.448,2.019,2.561,2.736,4.449,2.736c2.787,0,4.227-1.595,4.227-3.68c0-1.987-1.059-2.932-3.555-4.821l-1.28-.978c-3.041-2.313-4.033-4.006-4.033-5.929c0-3.258,2.528-5.211,6.242-5.211c1.121,0,2.242.163,2.913.325.543.131.769.131.992.131.226,0,.288.032.288.194c0,.13-.127,1.042-.127,2.932c0,.424-.032.62-.226.62-.191,0-.224-.13-.255-.358-.033-.326-.256-1.076-.417-1.368-.19-.326-1.12-1.369-3.649-1.369-2.048,0-3.746,1.043-3.746,2.997c0,1.759.865,2.769,3.649,4.691l.801.554c3.426,2.377,4.611,4.3,4.611,6.677c0,1.629-.61,3.388-2.626,4.724-1.185.781-2.944.977-4.481.977-1.314,0-2.946-.196-4.098-.75l.001.001Z" fill="#673ab7" fill-opacity="0.75" stroke="#8d6bc9" stroke-opacity="0"/><path d="M416.089,102.884c6.34,0,11.142,3.942,11.142,10.392c0,6.189-4.515,11.304-11.302,11.304-7.716,0-11.014-5.897-11.014-10.88c0-4.464,3.395-10.815,11.174-10.815v-.001Zm.64,20.555c2.528,0,7.618-1.369,7.618-9.381c0-6.645-3.97-10.131-8.419-10.131-4.706,0-8.101,2.997-8.101,9.023c0,6.449,3.811,10.489,8.901,10.489h.001Z" fill="#673ab7" fill-opacity="0.75" stroke="#8d6bc9" stroke-opacity="0"/><path d="M436.292,111.289c0-4.3,0-5.082-.065-5.961-.062-.944-.223-1.401-1.15-1.531-.225-.034-.704-.066-.962-.066-.097,0-.223-.13-.223-.228c0-.163.126-.228.448-.228c1.279,0,3.169.065,3.329.065.287,0,2.655-.065,3.52-.065c1.792,0,3.778.164,5.251,1.206.704.521,1.953,1.855,1.953,3.778c0,2.053-.832,4.039-3.458,6.319c2.306,2.932,4.257,5.44,5.891,7.167c1.504,1.563,2.432,1.823,3.136,1.921.546.098.833.098.994.098.159,0,.256.13.256.228c0,.162-.159.228-.673.228h-1.759c-1.602,0-2.306-.164-3.01-.554-1.218-.651-2.242-1.987-3.844-4.072-1.184-1.498-2.432-3.29-3.042-4.039-.126-.131-.19-.164-.384-.164l-3.585-.064c-.126,0-.19.064-.19.228v.65c0,2.671,0,4.821.126,5.962.097.814.258,1.336,1.12,1.466.385.064.994.13,1.25.13.191,0,.224.13.224.228c0,.13-.127.228-.446.228-1.538,0-3.33-.098-3.459-.098-.031,0-1.921.098-2.786.098-.288,0-.446-.066-.446-.228c0-.098.064-.228.223-.228.256,0,.607-.066.866-.13.542-.13.607-.652.735-1.466.159-1.141.159-3.322.159-5.993v-4.887l.001.002Zm2.435,2.345c0,.163.064.26.19.358.417.228,1.856.424,3.106.424.672,0,1.44-.033,2.112-.488.959-.652,1.695-2.119,1.695-4.236c0-3.452-1.854-5.439-4.864-5.439-.832,0-1.729.097-2.018.162-.129.066-.223.163-.223.326v8.893h.002Z" fill="#673ab7" fill-opacity="0.75" stroke="#8d6bc9" stroke-opacity="0"/><path d="M458.323,123.829c-.384-.194-.416-.292-.416-1.041c0-1.369.129-2.477.159-2.933c0-.293.063-.457.226-.457.158,0,.255.098.255.326s0,.62.097,1.01c.449,2.019,2.561,2.736,4.45,2.736c2.784,0,4.225-1.595,4.225-3.68c0-1.987-1.057-2.932-3.553-4.821l-1.281-.978c-3.04-2.313-4.034-4.006-4.034-5.929c0-3.258,2.531-5.211,6.243-5.211c1.12,0,2.241.163,2.915.325.543.131.769.131.991.131s.288.032.288.194c0,.13-.129,1.042-.129,2.932c0,.424-.029.62-.223.62-.191,0-.224-.13-.256-.358-.032-.326-.258-1.076-.417-1.368-.193-.326-1.12-1.369-3.648-1.369-2.051,0-3.746,1.043-3.746,2.997c0,1.759.864,2.769,3.649,4.691l.801.554c3.426,2.377,4.608,4.3,4.608,6.677c0,1.629-.607,3.388-2.626,4.724-1.182.781-2.945.977-4.479.977-1.313,0-2.945-.196-4.099-.75v.001Z" fill="#673ab7" fill-opacity="0.75" stroke="#8d6bc9" stroke-opacity="0"/><path d="M496.46,116.24c0,4.072.065,5.734.578,6.222.448.457,1.537.651,3.746.651c1.473,0,2.72-.032,3.392-.846.354-.424.578-1.011.675-1.563.031-.196.126-.358.287-.358.129,0,.19.13.19.422s-.19,1.955-.416,2.769c-.191.652-.288.748-1.793.748-2.016,0-3.584-.032-4.895-.097-1.282-.034-2.241-.065-3.075-.065-.128,0-.607,0-1.152.032-.575.034-1.185.066-1.634.066-.287,0-.446-.066-.446-.228c0-.098.065-.228.223-.228.256,0,.607-.066.866-.13.542-.13.607-.652.735-1.466.159-1.141.159-3.322.159-5.993v-4.887c0-4.3,0-5.082-.064-5.961-.062-.944-.223-1.401-1.15-1.531-.226-.034-.703-.066-.962-.066-.097,0-.223-.13-.223-.228c0-.163.126-.228.448-.228c1.279,0,3.04.065,3.2.065.13,0,2.242-.065,3.106-.065.288,0,.446.065.446.228c0,.098-.126.196-.223.196-.193,0-.607.032-.93.064-.83.164-.992.586-1.057,1.564-.032.879-.032,1.661-.032,5.961v4.951l.001.001Z" fill="#673ab7" fill-opacity="0.75" stroke="#8d6bc9" stroke-opacity="0"/><path d="M516.867,116.24c0,4.072.065,5.734.576,6.222.448.457,1.536.651,3.745.651c1.473,0,2.723-.032,3.395-.846.352-.424.575-1.011.671-1.563.033-.196.13-.358.288-.358.129,0,.193.13.193.422s-.193,1.955-.417,2.769c-.19.652-.287.748-1.792.748-2.018,0-3.584-.032-4.898-.097-1.279-.034-2.241-.065-3.074-.065-.126,0-.607,0-1.15.032-.577.034-1.184.066-1.634.066-.287,0-.448-.066-.448-.228c0-.098.063-.228.225-.228.256,0,.607-.066.863-.13.545-.13.61-.652.736-1.466.161-1.141.161-3.322.161-5.993v-4.887c0-4.3,0-5.082-.064-5.961-.064-.944-.223-1.401-1.152-1.531-.224-.034-.705-.066-.96-.066-.097,0-.226-.13-.226-.228c0-.163.129-.228.448-.228c1.282,0,3.042.065,3.201.065.129,0,2.241-.065,3.106-.065.288,0,.448.065.448.228c0,.098-.129.196-.226.196-.19,0-.607.032-.927.064-.833.164-.992.586-1.057,1.564-.032.879-.032,1.661-.032,5.961v4.951l.001.001Z" fill="#673ab7" fill-opacity="0.75" stroke="#8d6bc9" stroke-opacity="0"/><path d="M533.8,121.614c-2.752-2.41-3.426-5.569-3.426-8.208c0-1.857.674-5.081,3.171-7.558c1.696-1.661,4.257-2.964,8.58-2.964c1.121,0,2.72.098,4.098.326c1.057.195,1.951.39,2.882.423.287,0,.352.13.352.293c0,.228-.064.554-.129,1.563-.032.912-.032,2.443-.064,2.834-.032.423-.158.586-.32.586-.19,0-.223-.196-.223-.586c0-1.076-.449-2.183-1.185-2.769-.991-.847-3.041-1.531-5.538-1.531-3.617,0-5.348.977-6.339,1.921-2.08,1.955-2.528,4.43-2.528,7.231c0,5.311,4.13,10.033,10.149,10.033c2.112,0,3.52-.163,4.641-1.303.607-.619.992-1.791,1.089-2.313.063-.293.097-.391.287-.391.129,0,.258.196.258.391c0,.196-.385,2.606-.675,3.551-.158.52-.223.619-.704.814-1.152.456-3.265.619-5.089.619-4.225,0-7.076-1.011-9.285-2.965l-.002.003Z" fill="#673ab7" fill-opacity="0.75" stroke="#8d6bc9" stroke-opacity="0"/><path d="M0.001,106.755c237.491-142.958,503.593-62.406,593.843-.063-230.71-96.523-473.297-59.055-593.843.063Z" fill="#a68de2" fill-opacity="0.75" stroke="#8d6bc9" stroke-opacity="0"/><path d="M47.106,90.22c-1.453-.726-1.574-1.09-1.574-3.875c0-5.085.484-9.203.606-10.898c0-1.089.242-1.695.847-1.695s.969.363.969,1.211s0,2.301.363,3.754c1.695,7.507,9.686,10.17,16.831,10.17c10.534,0,15.983-5.933,15.983-13.682c0-7.386-3.997-10.897-13.441-17.92l-4.843-3.632C51.344,45.056,47.591,38.76,47.591,31.616c0-12.108,9.566-19.373,23.611-19.373c4.237,0,8.476.606,11.019,1.211c2.059.485,2.905.485,3.753.485s1.09.121,1.09.726c0,.484-.484,3.874-.484,10.897c0,1.574-.122,2.301-.848,2.301s-.848-.484-.969-1.331c-.121-1.211-.968-3.996-1.574-5.086-.727-1.21-4.238-5.085-13.804-5.085-7.749,0-14.166,3.874-14.166,11.14c0,6.538,3.27,10.292,13.803,17.436l3.027,2.058c12.956,8.839,17.437,15.983,17.437,24.822c0,6.055-2.301,12.593-9.929,17.557-4.48,2.906-11.14,3.633-16.952,3.633-4.964,0-11.139-.728-15.499-2.785v-.002Z" fill="#673ab7" fill-opacity="0.75" stroke="#8d6bc9" stroke-opacity="0"/><path d="M116.775,43.603c0-15.983,0-18.889-.242-22.159-.242-3.511-.848-5.206-4.359-5.69-.848-.121-2.664-.242-3.632-.242-.364,0-.848-.485-.848-.848c0-.605.484-.847,1.695-.847c4.844,0,11.382.242,11.987.242.969,0,7.386-.242,10.535-.242c1.21,0,1.695.242,1.695.847c0,.363-.363.848-.848.848-.727,0-1.332,0-2.664.242-2.785.605-3.511,2.058-3.753,5.69-.242,3.269-.242,6.176-.242,22.159v6.175h.484c1.695-1.937,20.705-20.705,24.701-24.821c3.027-3.027,5.812-5.691,5.812-7.386c0-1.332-.484-1.937-1.332-2.058-.606-.122-.969-.606-.969-.969c0-.484.485-.726,1.211-.726c2.18,0,5.448.242,7.991.242.605,0,7.628-.242,10.292-.242c1.089,0,1.574.242,1.574.726s-.243.847-1.09.847c-1.574,0-3.874.606-5.933,1.454-4.359,1.936-6.418,4.237-11.14,8.718-2.664,2.421-20.826,19.858-23.127,22.4c2.785,3.027,24.943,25.186,29.302,29.181c8.96,7.992,10.17,9.323,15.256,11.382c2.785,1.089,5.812,1.454,6.539,1.454s1.332.363,1.332.847-.484.848-2.301.848h-5.449c-3.027,0-4.964,0-7.386-.242-5.57-.485-8.355-2.785-12.956-6.297-4.844-3.753-27.244-27.365-32.33-33.419h-.484v10.05c0,9.929,0,18.041.484,22.28.364,3.027.848,4.964,4.117,5.449c1.453.242,3.148.485,4.117.485.605,0,.848.483.848.847c0,.485-.485.848-1.695.848-5.206,0-11.624-.363-12.472-.363s-7.264.363-10.534.363c-1.089,0-1.695-.242-1.695-.848c0-.363.242-.847.848-.847.968,0,2.3-.243,3.269-.485c2.058-.484,2.301-2.422,2.785-5.449.605-4.238.605-12.35.605-22.28v-18.162l.002-.002Z" fill="#673ab7" fill-opacity="0.75" stroke="#8d6bc9" stroke-opacity="0"/><path d="M209.525,64.913c0-5.57-.727-7.628-2.301-10.534-.848-1.575-15.256-24.458-18.889-29.908-2.544-3.874-5.086-6.175-7.023-7.507-1.574-.968-3.633-1.452-4.48-1.452-.605,0-1.09-.485-1.09-.969s.363-.726,1.331-.726c2.059,0,10.05.242,10.535.242.727,0,5.085-.242,9.202-.242c1.211,0,1.454.242,1.454.726c0,.363-.727.726-1.695,1.09-.848.363-1.332.847-1.332,1.695c0,1.452.726,2.664,1.453,3.996L216.064,53.41c2.18-4.358,15.499-26.395,17.436-29.786c1.332-2.301,1.816-3.996,1.816-5.328c0-1.453-.484-2.3-1.695-2.664-.969-.243-1.574-.726-1.574-1.211c0-.363.605-.605,1.695-.605c2.786,0,6.539.242,7.386.242.727,0,8.354-.242,10.413-.242.727,0,1.332.242,1.332.605c0,.484-.485,1.09-1.332,1.09-1.211,0-3.269.363-4.964,1.332-2.059,1.21-3.027,2.3-5.328,5.085-3.512,4.117-18.526,28.333-20.705,32.692-1.817,3.633-1.332,6.902-1.332,10.292v8.839c0,1.695,0,6.054.363,10.292.243,3.027.969,4.964,4.117,5.449c1.453.242,3.874.485,4.843.485.605,0,.847.483.847.847c0,.485-.605.848-1.695.848-5.934,0-12.835-.363-13.44-.363-.485,0-7.266.363-10.413.363-1.211,0-1.696-.242-1.696-.848c0-.363.242-.847.848-.847.969,0,2.18-.243,3.148-.485c2.18-.484,2.906-2.422,3.148-5.449.243-4.238.243-8.598.243-10.292v-8.839.001Z" fill="#673ab7" fill-opacity="0.75" stroke="#8d6bc9" stroke-opacity="0"/><path d="M296.133,75.655c7.252-16.212,23.605-57.452,26.309-66.127.568-1.849,1.138-3.555,1.138-4.55s-.427-2.133-1.707-2.56c-1.421-.426-2.844-.426-4.267-.426-.712,0-1.421-.427-1.421-.996c0-.711.852-.995,2.844-.995c4.978,0,10.665.284,12.229.284.711,0,6.116-.284,9.812-.284c1.279,0,1.991.284,1.991.853s-.427,1.138-1.421,1.138c-.855,0-3.698,0-5.975,1.422-1.706,1.138-3.697,2.843-6.968,11.093-1.422,3.413-7.538,17.917-13.936,32.707-7.68,17.634-13.226,30.718-16.07,36.69-3.413,7.253-4.123,9.102-5.403,9.102-1.422,0-2.275-1.565-4.693-7.396L257.879,11.52c-2.845-6.827-4.551-8.106-8.675-9.102-1.992-.426-4.124-.426-4.835-.426s-.996-.711-.996-1.138c0-.711,1.28-.853,3.271-.853c5.972,0,13.083.284,14.647.284c1.28,0,6.826-.284,11.661-.284c2.275,0,3.413.284,3.413.853s-.426,1.138-1.28,1.138c-1.422,0-3.413.142-4.551.568-1.279.569-1.422,1.28-1.422,2.133c0,1.564,1.564,5.263,3.413,10.097l23.608,60.866v-.001Z" fill="#673ab7" fill-opacity="0.75" stroke="#8d6bc9" stroke-opacity="0"/><path d="M365.103,61.765c0,9.929,0,18.041.484,22.28.363,3.027.727,4.964,3.875,5.449c1.574.242,3.875.485,4.843.485.604,0,.849.483.849.847c0,.485-.485.848-1.696.848-5.933,0-12.835-.363-13.319-.363-.604,0-7.266.363-10.534.363-1.089,0-1.695-.242-1.695-.848c0-.363.242-.847.848-.847.97,0,2.301-.243,3.27-.485c2.058-.484,2.42-2.422,2.783-5.449.485-4.238.607-12.35.607-22.28v-18.162c0-15.983,0-18.889-.242-22.159-.242-3.511-1.09-5.085-3.391-5.569-1.211-.242-2.543-.363-3.269-.363-.485,0-.849-.485-.849-.848c0-.605.484-.847,1.696-.847c3.51,0,10.171.242,10.775.242.484,0,7.387-.242,10.655-.242c1.212,0,1.696.242,1.696.847c0,.363-.484.848-.849.848-.726,0-1.453,0-2.663.242-2.906.605-3.513,2.058-3.754,5.69-.121,3.269-.121,6.176-.121,22.159v18.162h.001Z" fill="#673ab7" fill-opacity="0.75" stroke="#8d6bc9" stroke-opacity="0"/><path d="M400.098,43.603c0-15.983,0-18.889-.243-22.159-.242-3.511-.847-5.206-4.358-5.69-.848-.121-2.664-.242-3.633-.242-.363,0-.847-.485-.847-.848c0-.605.483-.847,1.694-.847c4.843,0,11.745.242,12.352.242.726,0,23.005.122,25.427,0c2.058-.121,3.995-.484,4.843-.605.484-.121.968-.484,1.453-.484.363,0,.484.484.484.969c0,.726-.604,1.937-.848,4.842-.122.969-.363,5.57-.605,6.781-.121.484-.484,1.09-.969,1.09-.605,0-.848-.484-.848-1.332c0-.727-.12-2.421-.605-3.633-.727-1.695-1.816-2.421-7.629-3.148-1.815-.242-14.167-.363-15.377-.363-.484,0-.605.363-.605,1.089v27.971c0,.726,0,1.089.605,1.089c1.331,0,15.377,0,17.799-.242c2.543-.242,4.117-.363,5.207-1.453.726-.726,1.21-1.332,1.574-1.332.362,0,.604.243.604.848s-.604,2.3-.847,5.691c-.243,2.058-.485,5.933-.485,6.66c0,.847-.242,1.936-.969,1.936-.483,0-.726-.363-.726-.969c0-.968,0-2.058-.483-3.39-.363-1.453-1.332-2.664-5.449-3.148-2.905-.363-14.287-.484-16.104-.484-.604,0-.726.363-.726.727v8.597c0,3.512-.122,15.499,0,17.557.242,6.902,2.179,8.234,12.714,8.234c2.783,0,7.87,0,10.655-1.09c2.784-1.21,4.237-3.026,4.843-7.143.242-1.211.484-1.574,1.09-1.574s.727.848.727,1.574-.849,7.749-1.453,9.929c-.727,2.664-1.815,2.664-5.933,2.664-7.991,0-14.167-.242-18.526-.363-4.48-.242-7.266-.242-8.838-.242-.244,0-2.302,0-4.602.121-2.059.121-4.481.242-6.176.242-1.09,0-1.695-.242-1.695-.848c0-.363.242-.847.848-.847.969,0,2.301-.365,3.271-.485c2.058-.363,2.3-2.422,2.783-5.449.606-4.238.606-12.35.606-22.28v-18.162-.001Z" fill="#673ab7" fill-opacity="0.75" stroke="#8d6bc9" stroke-opacity="0"/><path d="M535.894,76.416h.483c2.664-8.476,12.23-38.262,15.983-51.46c1.089-3.875,1.211-5.086,1.211-6.418c0-1.816-.848-3.026-5.691-3.026-.604,0-.968-.606-.968-.969c0-.484.483-.726,1.816-.726c5.447,0,9.929.242,10.898.242.726,0,5.327-.242,8.596-.242.97,0,1.454.242,1.454.605c0,.484-.243,1.09-.97,1.09-.363,0-2.421.121-3.632.484-3.148,1.089-4.843,5.207-6.901,10.897-4.724,13.077-15.257,45.769-19.495,57.272-2.784,7.628-3.391,8.839-4.601,8.839-1.089,0-2.058-1.332-3.511-5.328L509.74,31.371c-3.632,8.96-18.041,46.618-21.916,56.183-1.816,4.358-2.542,5.449-3.753,5.449-1.09,0-1.937-1.091-4.117-8.113l-18.89-61.026c-1.694-5.449-2.784-6.781-5.569-7.75-1.453-.484-4.117-.604-4.844-.604-.484,0-.969-.364-.969-.969c0-.484.727-.726,1.695-.726c5.57,0,11.502.242,12.593.242.968,0,5.812-.242,11.14-.242c1.453,0,1.936.242,1.936.726c0,.605-.604.969-1.089.969-.848,0-2.543,0-3.754.604-.726.243-1.453.848-1.453,2.18s.849,4.964,2.058,9.566c1.696,6.538,12.593,44.317,13.926,48.554h.241L509.256,18.9c1.573-4.117,2.3-4.722,2.905-4.722.727,0,1.574,1.332,2.905,4.843l20.827,57.393.001.002Z" fill="#673ab7" fill-opacity="0.75" stroke="#8d6bc9" stroke-opacity="0"/></svg>
